<?xml version="1.0" encoding="utf-8"?>
<!-- Generator: Adobe Illustrator 19.1.0, SVG Export Plug-In . SVG Version: 6.00 Build 0)  -->
<svg version="1.1" id="Layer_1" xmlns="http://www.w3.org/2000/svg" xmlns:xlink="http://www.w3.org/1999/xlink" x="0px" y="0px"
	 viewBox="-198.3 347 100 100" style="enable-background:new -198.3 347 100 100;" xml:space="preserve">
<style type="text/css">
	.st0{fill:#263148;}
	.st1{fill:#BF2B52;}
</style>
<path class="st0" d="M-118.6,399.3c8-3.8,13.5-12,13.5-21.3c0-13.1-10.6-23.7-23.7-23.7c-9.4,0-17.5,5.5-21.3,13.5
	c-3.8-8-12-13.5-21.3-13.5c-13.1,0-23.7,10.6-23.7,23.7c0,9.4,5.5,17.5,13.5,21.3c-8,3.8-13.5,12-13.5,21.3
	c0,13.1,10.6,23.7,23.7,23.7c9.4,0,17.5-5.5,21.3-13.5c3.8,8,12,13.5,21.3,13.5c13.1,0,23.7-10.6,23.7-23.7
	C-105.1,411.3-110.6,403.1-118.6,399.3z M-128.8,358.9c10.5,0,19,8.5,19,19s-8.5,19-19,19c-10.5,0-19-8.5-19-19
	S-139.3,358.9-128.8,358.9z M-190.5,378c0-10.5,8.5-19,19-19c10.5,0,19,8.5,19,19c0,10.5-8.5,19-19,19
	C-182,397-190.5,388.5-190.5,378z M-171.5,439.7c-10.5,0-19-8.5-19-19c0-10.5,8.5-19,19-19s19,8.5,19,19
	C-152.4,431.2-161,439.7-171.5,439.7z M-128.8,439.7c-10.5,0-19-8.5-19-19c0-10.5,8.5-19,19-19c10.5,0,19,8.5,19,19
	C-109.8,431.2-118.3,439.7-128.8,439.7z"/>
<path class="st1" d="M-157.1,384.8c0.6-1.2,0.1-2.5-1.1-3.1l-8.5-4c-0.1-2.5-2.2-4.6-4.8-4.6c-1,0-2,0.3-2.8,0.9l-8.4-4
	c-1.2-0.6-2.5-0.1-3.1,1.1c-0.6,1.2-0.1,2.5,1.1,3.1l8.5,4c0.1,2.5,2.2,4.5,4.8,4.5c1,0,2-0.3,2.8-0.9l8.4,4c0.3,0.2,0.7,0.2,1,0.2
	C-158.4,386.2-157.5,385.7-157.1,384.8z M-173.5,378c0-1.1,0.9-2,2-2c1.1,0,2,0.9,2,2c0,1.1-0.9,2-2,2
	C-172.6,380-173.5,379.1-173.5,378z"/>
<path class="st1" d="M-134.6,392.8c0.3,0.1,0.6,0.2,0.9,0.2c0.9,0,1.8-0.6,2.2-1.5l3.5-8.7c2.4-0.3,4.3-2.4,4.2-4.9
	c0-1.1-0.5-2.1-1.1-2.9l3.5-8.7c0.5-1.2-0.1-2.5-1.3-3c-1.2-0.5-2.5,0.1-3,1.3l-3.5,8.7c-2.4,0.3-4.3,2.4-4.2,4.9
	c0,1.1,0.5,2.1,1.1,2.9l-3.5,8.7C-136.4,390.9-135.8,392.3-134.6,392.8z M-128.8,375.9c1.1,0,2,0.9,2,2c0,1.1-0.8,2.1-2,2.1l-0.1,0
	c-1.1,0-2-0.9-2-2C-130.9,376.9-130,376-128.8,375.9z"/>
<path class="st1" d="M-167.7,423.7c0.6-0.8,1-1.7,1.1-2.7c0.1-1.3-0.3-2.5-1.2-3.5c-0.8-0.9-1.9-1.4-3.1-1.6l-3.6-8.7
	c-0.5-1.2-1.8-1.8-3-1.3c-1.2,0.5-1.8,1.8-1.3,3l3.6,8.7c-0.6,0.8-1,1.7-1.1,2.7c-0.2,2.6,1.7,4.8,4.3,5.1l3.6,8.7
	c0.4,0.9,1.2,1.4,2.1,1.4c0.3,0,0.6-0.1,0.9-0.2c1.2-0.5,1.8-1.8,1.3-3L-167.7,423.7z M-173.5,420.5c0.1-1.1,1-1.9,2-1.9l0.1,0
	c0.5,0,1,0.3,1.4,0.7s0.5,0.9,0.5,1.5c-0.1,1.1-1,1.9-2,1.9l-0.1,0C-172.7,422.6-173.6,421.7-173.5,420.5z"/>
<path class="st1" d="M-118,412.1l-8.2,4.5c-0.8-0.5-1.8-0.8-2.8-0.7c-1.3,0.1-2.5,0.6-3.3,1.6c-0.8,0.9-1.2,2-1.2,3.2l-8.2,4.5
	c-1.1,0.6-1.5,2-0.9,3.2c0.4,0.8,1.2,1.2,2,1.2c0.4,0,0.8-0.1,1.1-0.3l8.2-4.5c0.7,0.5,1.6,0.8,2.6,0.8c0.1,0,0.2,0,0.2,0
	c2.6-0.1,4.6-2.3,4.6-4.8l8.2-4.5c1.1-0.6,1.5-2,0.9-3.2C-115.5,411.9-116.9,411.5-118,412.1z M-128.7,422.7l-0.1,0
	c-1.1,0-2-0.9-2-1.9c0-0.5,0.2-1.1,0.5-1.5c0.4-0.4,0.9-0.6,1.4-0.7l0.1,0c1.1,0,2,0.9,2,1.9C-126.7,421.7-127.6,422.7-128.7,422.7z
	"/>
</svg>
