<?xml version="1.0" encoding="utf-8"?>
<!-- Generator: Adobe Illustrator 19.1.0, SVG Export Plug-In . SVG Version: 6.00 Build 0)  -->
<svg version="1.1" id="Layer_1" xmlns="http://www.w3.org/2000/svg" xmlns:xlink="http://www.w3.org/1999/xlink" x="0px" y="0px"
	 viewBox="-89.3 347 100 100" style="enable-background:new -89.3 347 100 100;" xml:space="preserve">
<style type="text/css">
	.st0{fill:#263148;}
	.st1{fill:#BF2B52;}
</style>
<path class="st1" d="M-62.5,360.8c1.6-0.9,3.2-1.6,5-2.1v-1.8c0-2.2,1.8-4,4-4h3.5c2.2,0,4,1.8,4,4v1.8c1.7,0.5,3.4,1.2,5,2.1
	l1.3-1.3c0.8-0.8,1.8-1.2,2.8-1.2c1.1,0,2.1,0.4,2.8,1.2l2.5,2.5c0.8,0.8,1.2,1.8,1.2,2.8c0,1.1-0.4,2.1-1.2,2.8l-1.3,1.3
	c0.9,1.6,1.6,3.2,2.1,5h1.8c2.2,0,4,1.8,4,4v3.5c0,2.2-1.8,4-4,4h-1.8c-0.5,1.7-1.2,3.4-2.1,5l1.3,1.3c1.6,1.6,1.6,4.1,0,5.6
	l-2.5,2.5c-0.8,0.8-1.8,1.2-2.8,1.2c-1.1,0-2.1-0.4-2.8-1.2l-1.3-1.3c-1.6,0.9-3.2,1.6-5,2.1v1.8c0,2.2-1.8,4-4,4h-3.5
	c-2.2,0-4-1.8-4-4v-1.8c-1.7-0.5-3.4-1.2-5-2.1l-1.3,1.3c-1.6,1.6-4.1,1.6-5.6,0l-2.5-2.5c-1.6-1.6-1.6-4.1,0-5.6l1.3-1.3
	c-0.9-1.6-1.6-3.2-2.1-5h-1.8c-2.2,0-4-1.8-4-4v-3.5c0-2.2,1.8-4,4-4h1.8c0.5-1.7,1.2-3.4,2.1-5l-1.3-1.3c-0.8-0.8-1.2-1.8-1.2-2.8
	c0-1.1,0.4-2.1,1.2-2.8l2.5-2.5c1.6-1.6,4.1-1.6,5.6,0L-62.5,360.8z M-61.7,364.8c-0.7,0.5-1.7,0.4-2.4-0.2l-2.3-2.3
	c-0.1-0.1-0.2-0.1-0.3,0l-2.5,2.5c0,0-0.1,0.1-0.1,0.2c0,0.1,0,0.1,0.1,0.2l2.3,2.3c0.6,0.6,0.7,1.6,0.2,2.4c-1.3,2-2.2,4.1-2.7,6.4
	c-0.2,0.9-0.9,1.5-1.8,1.5h-3.3c-0.1,0-0.2,0.1-0.2,0.2v3.5c0,0.1,0.1,0.2,0.2,0.2h3.3c0.9,0,1.7,0.6,1.8,1.5
	c0.5,2.3,1.4,4.5,2.7,6.4c0.5,0.7,0.4,1.7-0.2,2.4l-2.3,2.3c-0.1,0.1-0.1,0.2,0,0.3l2.5,2.5c0.1,0.1,0.2,0.1,0.3,0l2.3-2.3
	c0.4-0.4,0.8-0.5,1.3-0.5c0.4,0,0.7,0.1,1,0.3c2,1.3,4.1,2.2,6.4,2.7c0.9,0.2,1.5,0.9,1.5,1.8v3.3c0,0.1,0.1,0.2,0.2,0.2h3.5
	c0.1,0,0.2-0.1,0.2-0.2v-3.3c0-0.9,0.6-1.7,1.5-1.8c2.3-0.5,4.5-1.4,6.4-2.7c0.7-0.5,1.7-0.4,2.4,0.2l2.3,2.3c0.1,0.1,0.2,0.1,0.3,0
	l2.5-2.5c0.1-0.1,0.1-0.2,0-0.3l-2.3-2.3c-0.6-0.6-0.7-1.6-0.2-2.4c1.3-2,2.2-4.1,2.7-6.4c0.2-0.9,0.9-1.5,1.8-1.5h3.3
	c0.1,0,0.2-0.1,0.2-0.2V378c0-0.1-0.1-0.2-0.2-0.2h-3.3c-0.9,0-1.7-0.6-1.8-1.5c-0.5-2.3-1.4-4.5-2.7-6.4c-0.5-0.7-0.4-1.7,0.2-2.4
	l2.3-2.3c0,0,0.1-0.1,0.1-0.2c0-0.1,0-0.1-0.1-0.2l-2.5-2.5c-0.1-0.1-0.2-0.1-0.3,0l-2.3,2.3c-0.6,0.6-1.6,0.7-2.4,0.2
	c-2-1.3-4.1-2.2-6.4-2.7c-0.9-0.2-1.5-0.9-1.5-1.8V357c0-0.1-0.1-0.2-0.2-0.2h-3.5c-0.1,0-0.2,0.1-0.2,0.2v3.3
	c0,0.9-0.6,1.7-1.5,1.8C-57.6,362.6-59.8,363.5-61.7,364.8z M-64.5,379.7c0-7,5.7-12.7,12.7-12.7s12.7,5.7,12.7,12.7
	s-5.7,12.7-12.7,12.7S-64.5,386.7-64.5,379.7z M-60.7,379.7c0,4.9,4,8.9,8.9,8.9s8.9-4,8.9-8.9c0-4.9-4-8.9-8.9-8.9
	S-60.7,374.8-60.7,379.7z"/>
<path class="st0" d="M6.7,418.5c0,10.2-7.8,17.1-8.1,17.4s-0.8,0.5-1.2,0.5c-0.3,0-0.7-0.1-1-0.3l-13.1-8.3l-23.6,7.1
	c-3.4,1-7.1,0.6-10.2-1.1L-83.2,416c-0.8-0.4-1.2-1.4-0.9-2.3c0.9-2.3,4-6.1,9.8-4.4c5.6,1.6,20.9,6.6,21.1,6.7
	c1,0.3,1.5,1.4,1.2,2.4s-1.4,1.5-2.4,1.2c-0.2,0-15.4-5-21-6.6c-2.2-0.6-3.5,0-4.3,0.8l31,16.8c2.2,1.2,4.9,1.5,7.3,0.8l24.4-7.3
	c0.5-0.2,1.1-0.1,1.5,0.2l12.6,7.9c1.8-1.9,5.4-6.5,5.8-12.4l-22.3-9.7c-0.7-0.2-7.8-2.5-13.2,0l-13.1,6c0.3,0.9,1.1,1.9,2.9,2
	c4.5,0.1,11.8-1.3,11.9-1.3c1-0.2,2,0.5,2.2,1.5s-0.5,2-1.5,2.2c-0.3,0.1-7.8,1.5-12.7,1.4c-5.2-0.1-6.7-4.5-6.8-6.7
	c0-0.8,0.4-1.5,1.1-1.8l14.4-6.6c7.1-3.2,15.7-0.2,16.1-0.1h0.1l23.6,10.2C6.2,417.1,6.7,417.8,6.7,418.5z"/>
</svg>
