<?xml version="1.0" encoding="utf-8"?>
<!-- Generator: Adobe Illustrator 19.1.0, SVG Export Plug-In . SVG Version: 6.00 Build 0)  -->
<svg version="1.1" id="Layer_1" xmlns="http://www.w3.org/2000/svg" xmlns:xlink="http://www.w3.org/1999/xlink" x="0px" y="0px"
	 viewBox="-198.3 347 100 100" style="enable-background:new -198.3 347 100 100;" xml:space="preserve">
<style type="text/css">
	.st0{fill:#0071BC;}
</style>
<g>
	<path class="st0" d="M-211.4,443.6h-91.3c-0.6,0-1.2-0.4-1.6-0.8c-0.4-0.6-0.6-1.2-0.2-1.8l16.1-47.8c0.2-0.8,1-1.4,1.8-1.4h17.9
		c1.2,0,2,0.8,2,2c0,1.2-0.8,2-2,2h-16.5l-14.7,43.9h86l-12.1-43.9h-19.1c-1.2,0-2-0.8-2-2c0-1.2,0.8-2,2-2h20.4
		c0.8,0,1.6,0.6,2,1.4l13.3,47.8c0.2,0.6,0,1.2-0.4,1.8C-210.2,443.4-210.8,443.6-211.4,443.6z"/>
	<path class="st0" d="M-257,413.3c-0.6,0-1.2-0.2-1.6-0.8c-0.8-1.2-21-27.8-21-40.3c0-13.1,10.1-23.8,22.6-23.8
		c12.5,0,22.6,10.7,22.6,23.8c0,12.5-20.2,39.1-21,40.3C-255.8,413.1-256.4,413.3-257,413.3z M-257,352.3
		c-10.3,0-18.7,8.9-18.7,19.9c0,8.5,12.3,27,18.7,35.7c6.4-8.7,18.7-27.4,18.7-35.7C-238.4,361.1-246.5,352.3-257,352.3z"/>
	<path class="st0" d="M-257,384.7c-6.6,0-11.9-5.6-11.9-12.5c0-6.9,5.4-12.5,11.9-12.5c6.6,0,11.9,5.6,11.9,12.5
		C-245.1,379.1-250.5,384.7-257,384.7z M-257,363.6c-4.4,0-7.9,3.8-7.9,8.5c0,4.8,3.6,8.5,7.9,8.5c4.4,0,7.9-3.8,7.9-8.5
		S-252.6,363.6-257,363.6z"/>
</g>
<g>
	<path class="st0" d="M-118.6,397c8-3.8,13.5-12,13.5-21.3c0-13.1-10.6-23.7-23.7-23.7c-9.4,0-17.5,5.5-21.3,13.5
		c-3.8-8-12-13.5-21.3-13.5c-13.1,0-23.7,10.6-23.7,23.7c0,9.4,5.5,17.5,13.5,21.3c-8,3.8-13.5,12-13.5,21.3
		c0,13,10.6,23.7,23.7,23.7c9.4,0,17.5-5.5,21.3-13.5c3.8,8,12,13.5,21.3,13.5c13.1,0,23.7-10.6,23.7-23.7
		C-105.1,409-110.6,400.8-118.6,397z M-128.8,356.6c10.5,0,19,8.5,19,19c0,10.5-8.5,19-19,19c-10.5,0-19-8.5-19-19
		C-147.8,365.2-139.3,356.6-128.8,356.6z M-190.5,375.7c0-10.5,8.5-19,19-19c10.5,0,19,8.5,19,19s-8.5,19-19,19
		C-182,394.7-190.5,386.1-190.5,375.7z M-171.5,437.4c-10.5,0-19-8.5-19-19c0-10.5,8.5-19,19-19s19,8.5,19,19
		C-152.4,428.8-161,437.4-171.5,437.4z M-128.8,437.4c-10.5,0-19-8.5-19-19c0-10.5,8.5-19,19-19c10.5,0,19,8.5,19,19
		C-109.8,428.8-118.3,437.4-128.8,437.4z"/>
	<path class="st0" d="M-157.1,382.5c0.6-1.2,0.1-2.5-1.1-3.1l-8.5-4c-0.1-2.5-2.2-4.5-4.8-4.5c-1,0-2,0.3-2.8,0.9l-8.4-4
		c-1.2-0.6-2.5-0.1-3.1,1.1c-0.6,1.2-0.1,2.5,1.1,3.1l8.5,4c0.1,2.5,2.2,4.6,4.8,4.6c1,0,2-0.3,2.8-0.9l8.4,4c0.3,0.2,0.7,0.2,1,0.2
		C-158.4,383.8-157.5,383.4-157.1,382.5z M-173.5,375.7c0-1.1,0.9-2,2-2c1.1,0,2,0.9,2,2s-0.9,2-2,2
		C-172.6,377.7-173.5,376.8-173.5,375.7z"/>
	<path class="st0" d="M-134.6,390.4c0.3,0.1,0.6,0.2,0.9,0.2c0.9,0,1.8-0.6,2.2-1.5l3.5-8.7c2.4-0.3,4.3-2.4,4.2-4.9
		c0-1.1-0.5-2.1-1.1-2.9l3.5-8.7c0.5-1.2-0.1-2.5-1.3-3c-1.2-0.5-2.5,0.1-3,1.3l-3.5,8.7c-2.4,0.3-4.3,2.4-4.2,4.9
		c0,1.1,0.5,2.1,1.1,2.9l-3.5,8.7C-136.4,388.6-135.8,390-134.6,390.4z M-128.8,373.6c1.1,0,2,0.9,2,2c0,1.1-0.8,2.1-2,2.1l-0.1,0
		c-1.1,0-2-0.9-2-2C-130.9,374.6-130,373.7-128.8,373.6z"/>
	<path class="st0" d="M-167.7,421.4c0.6-0.8,1-1.7,1.1-2.7c0.1-1.3-0.3-2.5-1.2-3.5c-0.8-0.9-1.9-1.4-3.1-1.6l-3.6-8.7
		c-0.5-1.2-1.8-1.8-3-1.3c-1.2,0.5-1.8,1.8-1.3,3l3.6,8.7c-0.6,0.8-1,1.7-1.1,2.7c-0.2,2.6,1.7,4.8,4.3,5.1l3.6,8.7
		c0.4,0.9,1.2,1.4,2.1,1.4c0.3,0,0.6-0.1,0.9-0.2c1.2-0.5,1.8-1.8,1.3-3L-167.7,421.4z M-173.5,418.2c0.1-1.1,1-1.9,2-1.9l0.1,0
		c0.5,0,1,0.3,1.4,0.7s0.5,0.9,0.5,1.5c-0.1,1.1-1,1.9-2,1.9l-0.1,0C-172.7,420.3-173.6,419.3-173.5,418.2z"/>
	<path class="st0" d="M-118,409.8l-8.2,4.5c-0.8-0.5-1.8-0.8-2.8-0.7c-1.3,0.1-2.5,0.6-3.3,1.6c-0.8,0.9-1.2,2-1.2,3.2l-8.2,4.5
		c-1.1,0.6-1.5,2-0.9,3.2c0.4,0.8,1.2,1.2,2,1.2c0.4,0,0.8-0.1,1.1-0.3l8.2-4.5c0.7,0.5,1.6,0.8,2.6,0.8c0.1,0,0.2,0,0.2,0
		c2.6-0.1,4.6-2.3,4.6-4.8l8.2-4.5c1.1-0.6,1.5-2,0.9-3.2C-115.5,409.5-116.9,409.1-118,409.8z M-128.7,420.4l-0.1,0
		c-1.1,0-2-0.9-2-1.9c0-0.5,0.2-1.1,0.5-1.5c0.4-0.4,0.9-0.6,1.4-0.7l0.1,0c1.1,0,2,0.9,2,1.9C-126.7,419.4-127.6,420.3-128.7,420.4
		z"/>
</g>
<path class="st0" d="M6.7,418.5c0,10.2-7.8,17.1-8.1,17.4s-0.8,0.5-1.2,0.5c-0.3,0-0.7-0.1-1-0.3l-13.1-8.3l-23.6,7.1
	c-3.4,1-7.1,0.6-10.2-1.1L-83.2,416c-0.8-0.4-1.2-1.4-0.9-2.3c0.9-2.3,4-6.1,9.8-4.4c5.6,1.6,20.9,6.6,21.1,6.7
	c1,0.3,1.5,1.4,1.2,2.4s-1.4,1.5-2.4,1.2c-0.2,0-15.4-5-21-6.6c-2.2-0.6-3.5,0-4.3,0.8l31,16.8c2.2,1.2,4.9,1.5,7.3,0.8l24.4-7.3
	c0.5-0.2,1.1-0.1,1.5,0.2l12.6,7.9c1.8-1.9,5.4-6.5,5.8-12.4l-22.3-9.7c-0.7-0.2-7.8-2.5-13.2,0l-13.1,6c0.3,0.9,1.1,1.9,2.9,2
	c4.5,0.1,11.8-1.3,11.9-1.3c1-0.2,2,0.5,2.2,1.5s-0.5,2-1.5,2.2c-0.3,0.1-7.8,1.5-12.7,1.4c-5.2-0.1-6.7-4.5-6.8-6.7
	c0-0.8,0.4-1.5,1.1-1.8l14.4-6.6c7.1-3.2,15.7-0.2,16.1-0.1h0.1l23.6,10.2C6.2,417.1,6.7,417.8,6.7,418.5z M-62.5,360.8
	c1.6-0.9,3.2-1.6,5-2.1v-1.8c0-2.2,1.8-4,4-4h3.5c2.2,0,4,1.8,4,4v1.8c1.7,0.5,3.4,1.2,5,2.1l1.3-1.3c0.8-0.8,1.8-1.2,2.8-1.2
	c1.1,0,2.1,0.4,2.8,1.2l2.5,2.5c0.8,0.8,1.2,1.8,1.2,2.8c0,1.1-0.4,2.1-1.2,2.8l-1.3,1.3c0.9,1.6,1.6,3.2,2.1,5h1.8c2.2,0,4,1.8,4,4
	v3.5c0,2.2-1.8,4-4,4h-1.8c-0.5,1.7-1.2,3.4-2.1,5l1.3,1.3c1.6,1.6,1.6,4.1,0,5.6l-2.5,2.5c-0.8,0.8-1.8,1.2-2.8,1.2
	c-1.1,0-2.1-0.4-2.8-1.2l-1.3-1.3c-1.6,0.9-3.2,1.6-5,2.1v1.8c0,2.2-1.8,4-4,4h-3.5c-2.2,0-4-1.8-4-4v-1.8c-1.7-0.5-3.4-1.2-5-2.1
	l-1.3,1.3c-1.6,1.6-4.1,1.6-5.6,0l-2.5-2.5c-1.6-1.6-1.6-4.1,0-5.6l1.3-1.3c-0.9-1.6-1.6-3.2-2.1-5h-1.8c-2.2,0-4-1.8-4-4v-3.5
	c0-2.2,1.8-4,4-4h1.8c0.5-1.7,1.2-3.4,2.1-5l-1.3-1.3c-0.8-0.8-1.2-1.8-1.2-2.8c0-1.1,0.4-2.1,1.2-2.8l2.5-2.5
	c1.6-1.6,4.1-1.6,5.6,0L-62.5,360.8z M-61.7,364.8c-0.7,0.5-1.7,0.4-2.4-0.2l-2.3-2.3c-0.1-0.1-0.2-0.1-0.3,0l-2.5,2.5
	c0,0-0.1,0.1-0.1,0.2c0,0.1,0,0.1,0.1,0.2l2.3,2.3c0.6,0.6,0.7,1.6,0.2,2.4c-1.3,2-2.2,4.1-2.7,6.4c-0.2,0.9-0.9,1.5-1.8,1.5h-3.3
	c-0.1,0-0.2,0.1-0.2,0.2v3.5c0,0.1,0.1,0.2,0.2,0.2h3.3c0.9,0,1.7,0.6,1.8,1.5c0.5,2.3,1.4,4.5,2.7,6.4c0.5,0.7,0.4,1.7-0.2,2.4
	l-2.3,2.3c-0.1,0.1-0.1,0.2,0,0.3l2.5,2.5c0.1,0.1,0.2,0.1,0.3,0l2.3-2.3c0.4-0.4,0.8-0.5,1.3-0.5c0.4,0,0.7,0.1,1,0.3
	c2,1.3,4.1,2.2,6.4,2.7c0.9,0.2,1.5,0.9,1.5,1.8v3.3c0,0.1,0.1,0.2,0.2,0.2h3.5c0.1,0,0.2-0.1,0.2-0.2v-3.3c0-0.9,0.6-1.7,1.5-1.8
	c2.3-0.5,4.5-1.4,6.4-2.7c0.7-0.5,1.7-0.4,2.4,0.2l2.3,2.3c0.1,0.1,0.2,0.1,0.3,0l2.5-2.5c0.1-0.1,0.1-0.2,0-0.3l-2.3-2.3
	c-0.6-0.6-0.7-1.6-0.2-2.4c1.3-2,2.2-4.1,2.7-6.4c0.2-0.9,0.9-1.5,1.8-1.5h3.3c0.1,0,0.2-0.1,0.2-0.2V378c0-0.1-0.1-0.2-0.2-0.2
	h-3.3c-0.9,0-1.7-0.6-1.8-1.5c-0.5-2.3-1.4-4.5-2.7-6.4c-0.5-0.7-0.4-1.7,0.2-2.4l2.3-2.3c0,0,0.1-0.1,0.1-0.2c0-0.1,0-0.1-0.1-0.2
	l-2.5-2.5c-0.1-0.1-0.2-0.1-0.3,0l-2.3,2.3c-0.6,0.6-1.6,0.7-2.4,0.2c-2-1.3-4.1-2.2-6.4-2.7c-0.9-0.2-1.5-0.9-1.5-1.8V357
	c0-0.1-0.1-0.2-0.2-0.2h-3.5c-0.1,0-0.2,0.1-0.2,0.2v3.3c0,0.9-0.6,1.7-1.5,1.8C-57.6,362.6-59.8,363.5-61.7,364.8z M-64.5,379.7
	c0-7,5.7-12.7,12.7-12.7s12.7,5.7,12.7,12.7s-5.7,12.7-12.7,12.7S-64.5,386.7-64.5,379.7z M-60.7,379.7c0,4.9,4,8.9,8.9,8.9
	s8.9-4,8.9-8.9c0-4.9-4-8.9-8.9-8.9S-60.7,374.8-60.7,379.7z"/>
</svg>
