<?xml version="1.0" encoding="utf-8"?>
<!-- Generator: Adobe Illustrator 19.1.0, SVG Export Plug-In . SVG Version: 6.00 Build 0)  -->
<svg version="1.1" id="Layer_1" xmlns="http://www.w3.org/2000/svg" xmlns:xlink="http://www.w3.org/1999/xlink" x="0px" y="0px"
	 viewBox="-307 347 100 100" style="enable-background:new -307 347 100 100;" xml:space="preserve">
<style type="text/css">
	.st0{fill:#263148;}
	.st1{fill:#BF2B52;}
</style>
<path class="st0" d="M-211.4,443.6h-91.3c-0.6,0-1.2-0.4-1.6-0.8c-0.4-0.6-0.6-1.2-0.2-1.8l16.1-47.8c0.2-0.8,1-1.4,1.8-1.4h17.9
	c1.2,0,2,0.8,2,2c0,1.2-0.8,2-2,2h-16.5l-14.7,43.9h86l-12.1-43.9h-19.1c-1.2,0-2-0.8-2-2c0-1.2,0.8-2,2-2h20.4c0.8,0,1.6,0.6,2,1.4
	l13.3,47.8c0.2,0.6,0,1.2-0.4,1.8C-210.2,443.4-210.8,443.6-211.4,443.6z"/>
<path class="st1" d="M-257,413.3c-0.6,0-1.2-0.2-1.6-0.8c-0.8-1.2-21-27.8-21-40.3c0-13.1,10.1-23.8,22.6-23.8
	c12.5,0,22.6,10.7,22.6,23.8c0,12.5-20.2,39.1-21,40.3C-255.8,413.1-256.4,413.3-257,413.3z M-257,352.3c-10.3,0-18.7,8.9-18.7,19.9
	c0,8.5,12.3,27,18.7,35.7c6.4-8.7,18.7-27.4,18.7-35.7C-238.4,361.1-246.5,352.3-257,352.3z"/>
<path class="st1" d="M-257,384.7c-6.6,0-11.9-5.6-11.9-12.5c0-6.9,5.4-12.5,11.9-12.5c6.6,0,11.9,5.6,11.9,12.5
	C-245.1,379.1-250.5,384.7-257,384.7z M-257,363.6c-4.4,0-7.9,3.8-7.9,8.5c0,4.8,3.6,8.5,7.9,8.5s7.9-3.8,7.9-8.5
	S-252.6,363.6-257,363.6z"/>
</svg>
